<mxfile host="app.diagrams.net" agent="Mozilla/5.0 (Windows NT 10.0; Win64; x64) AppleWebKit/537.36 (KHTML, like Gecko) Chrome/133.0.0.0 Safari/537.36" version="26.0.16">
  <diagram name="PÃ¡gina-1" id="gpKXIw4_3M5giy0ZK9U_">
    <mxGraphModel dx="2000" dy="624" grid="1" gridSize="10" guides="1" tooltips="1" connect="1" arrows="1" fold="1" page="1" pageScale="1" pageWidth="827" pageHeight="1169" math="0" shadow="0">
      <root>
        <mxCell id="0" />
        <mxCell id="1" parent="0" />
        <mxCell id="JCLJ_OQUS7cyFxiiIFlF-17" style="edgeStyle=orthogonalEdgeStyle;rounded=0;orthogonalLoop=1;jettySize=auto;html=1;exitX=1;exitY=0.5;exitDx=0;exitDy=0;entryX=0;entryY=0.5;entryDx=0;entryDy=0;" edge="1" parent="1" source="JCLJ_OQUS7cyFxiiIFlF-1" target="JCLJ_OQUS7cyFxiiIFlF-10">
          <mxGeometry relative="1" as="geometry" />
        </mxCell>
        <mxCell id="JCLJ_OQUS7cyFxiiIFlF-1" value="&lt;b&gt;Pais&lt;/b&gt;" style="rounded=0;whiteSpace=wrap;html=1;fillColor=#e1d5e7;strokeColor=#9673a6;" vertex="1" parent="1">
          <mxGeometry x="-70" y="190" width="180" height="50" as="geometry" />
        </mxCell>
        <mxCell id="JCLJ_OQUS7cyFxiiIFlF-38" style="edgeStyle=orthogonalEdgeStyle;rounded=0;orthogonalLoop=1;jettySize=auto;html=1;exitX=0.5;exitY=1;exitDx=0;exitDy=0;entryX=0.5;entryY=0;entryDx=0;entryDy=0;" edge="1" parent="1" source="JCLJ_OQUS7cyFxiiIFlF-4" target="JCLJ_OQUS7cyFxiiIFlF-37">
          <mxGeometry relative="1" as="geometry" />
        </mxCell>
        <mxCell id="JCLJ_OQUS7cyFxiiIFlF-4" value="&lt;b&gt;Empleado&lt;/b&gt;" style="rounded=0;whiteSpace=wrap;html=1;fillColor=#e1d5e7;strokeColor=#9673a6;" vertex="1" parent="1">
          <mxGeometry x="1080" y="570" width="180" height="50" as="geometry" />
        </mxCell>
        <mxCell id="JCLJ_OQUS7cyFxiiIFlF-19" style="edgeStyle=orthogonalEdgeStyle;rounded=0;orthogonalLoop=1;jettySize=auto;html=1;exitX=1;exitY=0.5;exitDx=0;exitDy=0;entryX=0;entryY=0.5;entryDx=0;entryDy=0;" edge="1" parent="1" source="JCLJ_OQUS7cyFxiiIFlF-5" target="JCLJ_OQUS7cyFxiiIFlF-8">
          <mxGeometry relative="1" as="geometry" />
        </mxCell>
        <mxCell id="JCLJ_OQUS7cyFxiiIFlF-5" value="&lt;b&gt;Poblacion&lt;/b&gt;" style="rounded=0;whiteSpace=wrap;html=1;fillColor=#e1d5e7;strokeColor=#9673a6;" vertex="1" parent="1">
          <mxGeometry x="500" y="190" width="180" height="50" as="geometry" />
        </mxCell>
        <mxCell id="JCLJ_OQUS7cyFxiiIFlF-21" style="edgeStyle=orthogonalEdgeStyle;rounded=0;orthogonalLoop=1;jettySize=auto;html=1;exitX=0.5;exitY=1;exitDx=0;exitDy=0;entryX=0.5;entryY=0;entryDx=0;entryDy=0;" edge="1" parent="1" source="JCLJ_OQUS7cyFxiiIFlF-6" target="JCLJ_OQUS7cyFxiiIFlF-7">
          <mxGeometry relative="1" as="geometry" />
        </mxCell>
        <mxCell id="JCLJ_OQUS7cyFxiiIFlF-6" value="&lt;b&gt;Ubicacion&lt;/b&gt;" style="rounded=0;whiteSpace=wrap;html=1;fillColor=#e1d5e7;strokeColor=#9673a6;" vertex="1" parent="1">
          <mxGeometry x="1080" y="190" width="180" height="50" as="geometry" />
        </mxCell>
        <mxCell id="JCLJ_OQUS7cyFxiiIFlF-22" style="edgeStyle=orthogonalEdgeStyle;rounded=0;orthogonalLoop=1;jettySize=auto;html=1;exitX=0.5;exitY=1;exitDx=0;exitDy=0;entryX=0.5;entryY=0;entryDx=0;entryDy=0;" edge="1" parent="1" source="JCLJ_OQUS7cyFxiiIFlF-7" target="JCLJ_OQUS7cyFxiiIFlF-4">
          <mxGeometry relative="1" as="geometry" />
        </mxCell>
        <mxCell id="JCLJ_OQUS7cyFxiiIFlF-7" value="Trabaja" style="rhombus;whiteSpace=wrap;html=1;fillColor=#dae8fc;strokeColor=#6c8ebf;" vertex="1" parent="1">
          <mxGeometry x="1095" y="380" width="150" height="80" as="geometry" />
        </mxCell>
        <mxCell id="JCLJ_OQUS7cyFxiiIFlF-20" style="edgeStyle=orthogonalEdgeStyle;rounded=0;orthogonalLoop=1;jettySize=auto;html=1;exitX=1;exitY=0.5;exitDx=0;exitDy=0;entryX=0;entryY=0.5;entryDx=0;entryDy=0;" edge="1" parent="1" source="JCLJ_OQUS7cyFxiiIFlF-8" target="JCLJ_OQUS7cyFxiiIFlF-6">
          <mxGeometry relative="1" as="geometry" />
        </mxCell>
        <mxCell id="JCLJ_OQUS7cyFxiiIFlF-8" value="Tiene" style="rhombus;whiteSpace=wrap;html=1;fillColor=#dae8fc;strokeColor=#6c8ebf;" vertex="1" parent="1">
          <mxGeometry x="790" y="175" width="150" height="80" as="geometry" />
        </mxCell>
        <mxCell id="JCLJ_OQUS7cyFxiiIFlF-18" style="edgeStyle=orthogonalEdgeStyle;rounded=0;orthogonalLoop=1;jettySize=auto;html=1;exitX=1;exitY=0.5;exitDx=0;exitDy=0;entryX=0;entryY=0.5;entryDx=0;entryDy=0;" edge="1" parent="1" source="JCLJ_OQUS7cyFxiiIFlF-10" target="JCLJ_OQUS7cyFxiiIFlF-5">
          <mxGeometry relative="1" as="geometry" />
        </mxCell>
        <mxCell id="JCLJ_OQUS7cyFxiiIFlF-10" value="Contiene" style="rhombus;whiteSpace=wrap;html=1;fillColor=#dae8fc;strokeColor=#6c8ebf;" vertex="1" parent="1">
          <mxGeometry x="230" y="175" width="150" height="80" as="geometry" />
        </mxCell>
        <mxCell id="JCLJ_OQUS7cyFxiiIFlF-25" value="1.N" style="text;html=1;align=center;verticalAlign=middle;resizable=0;points=[];autosize=1;strokeColor=none;fillColor=none;" vertex="1" parent="1">
          <mxGeometry x="110" y="190" width="40" height="30" as="geometry" />
        </mxCell>
        <mxCell id="JCLJ_OQUS7cyFxiiIFlF-26" value="N.1" style="text;html=1;align=center;verticalAlign=middle;resizable=0;points=[];autosize=1;strokeColor=none;fillColor=none;" vertex="1" parent="1">
          <mxGeometry x="460" y="188" width="40" height="30" as="geometry" />
        </mxCell>
        <mxCell id="JCLJ_OQUS7cyFxiiIFlF-27" value="1.N" style="text;html=1;align=center;verticalAlign=middle;resizable=0;points=[];autosize=1;strokeColor=none;fillColor=none;" vertex="1" parent="1">
          <mxGeometry x="673" y="188" width="40" height="30" as="geometry" />
        </mxCell>
        <mxCell id="JCLJ_OQUS7cyFxiiIFlF-28" value="N.1" style="text;html=1;align=center;verticalAlign=middle;resizable=0;points=[];autosize=1;strokeColor=none;fillColor=none;" vertex="1" parent="1">
          <mxGeometry x="1030" y="188" width="40" height="30" as="geometry" />
        </mxCell>
        <mxCell id="JCLJ_OQUS7cyFxiiIFlF-29" value="1.N" style="text;html=1;align=center;verticalAlign=middle;resizable=0;points=[];autosize=1;strokeColor=none;fillColor=none;" vertex="1" parent="1">
          <mxGeometry x="1120" y="238" width="40" height="30" as="geometry" />
        </mxCell>
        <mxCell id="JCLJ_OQUS7cyFxiiIFlF-30" value="N.1" style="text;html=1;align=center;verticalAlign=middle;resizable=0;points=[];autosize=1;strokeColor=none;fillColor=none;" vertex="1" parent="1">
          <mxGeometry x="1120" y="538" width="40" height="30" as="geometry" />
        </mxCell>
        <mxCell id="JCLJ_OQUS7cyFxiiIFlF-36" value="" style="group" vertex="1" connectable="0" parent="1">
          <mxGeometry x="1088.5" y="850" width="710" height="80" as="geometry" />
        </mxCell>
        <mxCell id="JCLJ_OQUS7cyFxiiIFlF-2" value="&lt;b&gt;Salario&lt;/b&gt;" style="rounded=0;whiteSpace=wrap;html=1;fillColor=#e1d5e7;strokeColor=#9673a6;" vertex="1" parent="JCLJ_OQUS7cyFxiiIFlF-36">
          <mxGeometry x="530" y="15" width="180" height="50" as="geometry" />
        </mxCell>
        <mxCell id="JCLJ_OQUS7cyFxiiIFlF-31" style="edgeStyle=orthogonalEdgeStyle;rounded=0;orthogonalLoop=1;jettySize=auto;html=1;exitX=1;exitY=0.5;exitDx=0;exitDy=0;entryX=0;entryY=0.5;entryDx=0;entryDy=0;" edge="1" parent="JCLJ_OQUS7cyFxiiIFlF-36" source="JCLJ_OQUS7cyFxiiIFlF-3" target="JCLJ_OQUS7cyFxiiIFlF-24">
          <mxGeometry relative="1" as="geometry" />
        </mxCell>
        <mxCell id="JCLJ_OQUS7cyFxiiIFlF-3" value="&lt;b&gt;Puesto&lt;/b&gt;" style="rounded=0;whiteSpace=wrap;html=1;fillColor=#e1d5e7;strokeColor=#9673a6;" vertex="1" parent="JCLJ_OQUS7cyFxiiIFlF-36">
          <mxGeometry y="15" width="180" height="50" as="geometry" />
        </mxCell>
        <mxCell id="JCLJ_OQUS7cyFxiiIFlF-32" style="edgeStyle=orthogonalEdgeStyle;rounded=0;orthogonalLoop=1;jettySize=auto;html=1;exitX=1;exitY=0.5;exitDx=0;exitDy=0;entryX=0;entryY=0.5;entryDx=0;entryDy=0;" edge="1" parent="JCLJ_OQUS7cyFxiiIFlF-36" source="JCLJ_OQUS7cyFxiiIFlF-24" target="JCLJ_OQUS7cyFxiiIFlF-2">
          <mxGeometry relative="1" as="geometry" />
        </mxCell>
        <mxCell id="JCLJ_OQUS7cyFxiiIFlF-24" value="Ofrece" style="rhombus;whiteSpace=wrap;html=1;fillColor=#dae8fc;strokeColor=#6c8ebf;" vertex="1" parent="JCLJ_OQUS7cyFxiiIFlF-36">
          <mxGeometry x="290" width="160" height="80" as="geometry" />
        </mxCell>
        <mxCell id="JCLJ_OQUS7cyFxiiIFlF-33" value="1.N" style="text;html=1;align=center;verticalAlign=middle;resizable=0;points=[];autosize=1;strokeColor=none;fillColor=none;" vertex="1" parent="JCLJ_OQUS7cyFxiiIFlF-36">
          <mxGeometry x="174" y="15" width="40" height="30" as="geometry" />
        </mxCell>
        <mxCell id="JCLJ_OQUS7cyFxiiIFlF-35" value="N.1" style="text;html=1;align=center;verticalAlign=middle;resizable=0;points=[];autosize=1;strokeColor=none;fillColor=none;" vertex="1" parent="JCLJ_OQUS7cyFxiiIFlF-36">
          <mxGeometry x="490" y="13" width="40" height="30" as="geometry" />
        </mxCell>
        <mxCell id="JCLJ_OQUS7cyFxiiIFlF-41" value="1.1" style="text;html=1;align=center;verticalAlign=middle;resizable=0;points=[];autosize=1;strokeColor=none;fillColor=none;" vertex="1" parent="JCLJ_OQUS7cyFxiiIFlF-36">
          <mxGeometry x="41.5" y="-17" width="40" height="30" as="geometry" />
        </mxCell>
        <mxCell id="JCLJ_OQUS7cyFxiiIFlF-37" value="Ocupa" style="rhombus;whiteSpace=wrap;html=1;fillColor=#dae8fc;strokeColor=#6c8ebf;" vertex="1" parent="1">
          <mxGeometry x="1086.5" y="710" width="167" height="80" as="geometry" />
        </mxCell>
        <mxCell id="JCLJ_OQUS7cyFxiiIFlF-39" style="rounded=0;orthogonalLoop=1;jettySize=auto;html=1;exitX=0.5;exitY=1;exitDx=0;exitDy=0;entryX=0.451;entryY=0.027;entryDx=0;entryDy=0;entryPerimeter=0;" edge="1" parent="1" source="JCLJ_OQUS7cyFxiiIFlF-37" target="JCLJ_OQUS7cyFxiiIFlF-3">
          <mxGeometry relative="1" as="geometry" />
        </mxCell>
        <mxCell id="JCLJ_OQUS7cyFxiiIFlF-40" value="1.1" style="text;html=1;align=center;verticalAlign=middle;resizable=0;points=[];autosize=1;strokeColor=none;fillColor=none;" vertex="1" parent="1">
          <mxGeometry x="1120" y="628" width="40" height="30" as="geometry" />
        </mxCell>
        <mxCell id="JCLJ_OQUS7cyFxiiIFlF-42" value="1.N" style="text;html=1;align=center;verticalAlign=middle;resizable=0;points=[];autosize=1;strokeColor=none;fillColor=none;" vertex="1" parent="1">
          <mxGeometry x="280" y="256" width="40" height="30" as="geometry" />
        </mxCell>
        <mxCell id="JCLJ_OQUS7cyFxiiIFlF-43" value="1.N" style="text;html=1;align=center;verticalAlign=middle;resizable=0;points=[];autosize=1;strokeColor=none;fillColor=none;" vertex="1" parent="1">
          <mxGeometry x="840" y="258" width="40" height="30" as="geometry" />
        </mxCell>
        <mxCell id="JCLJ_OQUS7cyFxiiIFlF-44" value="1.N" style="text;html=1;align=center;verticalAlign=middle;resizable=0;points=[];autosize=1;strokeColor=none;fillColor=none;" vertex="1" parent="1">
          <mxGeometry x="1055" y="405" width="40" height="30" as="geometry" />
        </mxCell>
        <mxCell id="JCLJ_OQUS7cyFxiiIFlF-45" value="1.1" style="text;html=1;align=center;verticalAlign=middle;resizable=0;points=[];autosize=1;strokeColor=none;fillColor=none;" vertex="1" parent="1">
          <mxGeometry x="1046.5" y="735" width="40" height="30" as="geometry" />
        </mxCell>
      </root>
    </mxGraphModel>
  </diagram>
</mxfile>
